<mxfile host="app.diagrams.net" modified="2020-12-22T05:59:34.237Z" agent="5.0 (Windows NT 10.0; Win64; x64) AppleWebKit/537.36 (KHTML, like Gecko) Chrome/87.0.4280.88 Safari/537.36" etag="of1U5FpA0RZvvQurIieh" version="14.1.1" type="github">
  <diagram name="Page-1" id="42789a77-a242-8287-6e28-9cd8cfd52e62">
    <mxGraphModel dx="1422" dy="835" grid="1" gridSize="10" guides="1" tooltips="1" connect="1" arrows="1" fold="1" page="1" pageScale="1" pageWidth="1100" pageHeight="850" background="#ffffff" math="0" shadow="0">
      <root>
        <mxCell id="0" />
        <mxCell id="1" parent="0" />
        <mxCell id="lo6jfhoDCfdi372orzyL-1" value="" style="shape=curlyBracket;whiteSpace=wrap;html=1;rounded=1;size=0.5;" vertex="1" parent="1">
          <mxGeometry x="180" y="40" width="20" height="120" as="geometry" />
        </mxCell>
        <mxCell id="lo6jfhoDCfdi372orzyL-2" value="銘柄の定義" style="text;html=1;strokeColor=none;fillColor=none;align=center;verticalAlign=middle;whiteSpace=wrap;rounded=0;" vertex="1" parent="1">
          <mxGeometry x="110" y="90" width="70" height="20" as="geometry" />
        </mxCell>
        <mxCell id="lo6jfhoDCfdi372orzyL-3" value="デフォルト読込" style="text;html=1;strokeColor=none;fillColor=none;align=center;verticalAlign=middle;whiteSpace=wrap;rounded=0;" vertex="1" parent="1">
          <mxGeometry x="280" y="150" width="70" height="20" as="geometry" />
        </mxCell>
        <mxCell id="lo6jfhoDCfdi372orzyL-4" value="Tag9094比較" style="text;html=1;strokeColor=none;fillColor=none;align=center;verticalAlign=middle;whiteSpace=wrap;rounded=0;" vertex="1" parent="1">
          <mxGeometry x="380" y="90" width="120" height="20" as="geometry" />
        </mxCell>
        <mxCell id="lo6jfhoDCfdi372orzyL-5" value="銘柄定義&lt;br&gt;読込" style="text;html=1;strokeColor=none;fillColor=none;align=center;verticalAlign=middle;whiteSpace=wrap;rounded=0;" vertex="1" parent="1">
          <mxGeometry x="280" y="30" width="70" height="20" as="geometry" />
        </mxCell>
        <mxCell id="lo6jfhoDCfdi372orzyL-6" value="あり" style="text;html=1;strokeColor=none;fillColor=none;align=center;verticalAlign=middle;whiteSpace=wrap;rounded=0;" vertex="1" parent="1">
          <mxGeometry x="205" y="30" width="35" height="20" as="geometry" />
        </mxCell>
        <mxCell id="lo6jfhoDCfdi372orzyL-7" value="無し" style="text;html=1;strokeColor=none;fillColor=none;align=center;verticalAlign=middle;whiteSpace=wrap;rounded=0;" vertex="1" parent="1">
          <mxGeometry x="205" y="150" width="35" height="20" as="geometry" />
        </mxCell>
        <mxCell id="lo6jfhoDCfdi372orzyL-8" value="" style="line;strokeWidth=2;html=1;" vertex="1" parent="1">
          <mxGeometry x="240" y="35" width="40" height="10" as="geometry" />
        </mxCell>
        <mxCell id="lo6jfhoDCfdi372orzyL-9" value="" style="line;strokeWidth=2;html=1;" vertex="1" parent="1">
          <mxGeometry x="240" y="155" width="40" height="10" as="geometry" />
        </mxCell>
        <mxCell id="lo6jfhoDCfdi372orzyL-10" value="" style="shape=curlyBracket;whiteSpace=wrap;html=1;rounded=1;size=0.5;rotation=-180;" vertex="1" parent="1">
          <mxGeometry x="350" y="40" width="20" height="120" as="geometry" />
        </mxCell>
        <mxCell id="lo6jfhoDCfdi372orzyL-11" value="" style="shape=curlyBracket;whiteSpace=wrap;html=1;rounded=1;size=0.5;" vertex="1" parent="1">
          <mxGeometry x="490" y="40" width="20" height="120" as="geometry" />
        </mxCell>
        <mxCell id="lo6jfhoDCfdi372orzyL-12" value="Tag9094&amp;gt;=定義" style="text;html=1;strokeColor=none;fillColor=none;align=center;verticalAlign=middle;whiteSpace=wrap;rounded=0;" vertex="1" parent="1">
          <mxGeometry x="535" y="35" width="95" height="20" as="geometry" />
        </mxCell>
        <mxCell id="lo6jfhoDCfdi372orzyL-13" value="Tag9094&amp;lt;定義" style="text;html=1;strokeColor=none;fillColor=none;align=center;verticalAlign=middle;whiteSpace=wrap;rounded=0;" vertex="1" parent="1">
          <mxGeometry x="535" y="150" width="95" height="20" as="geometry" />
        </mxCell>
        <mxCell id="lo6jfhoDCfdi372orzyL-14" value="" style="line;strokeWidth=2;html=1;" vertex="1" parent="1">
          <mxGeometry x="650" y="35" width="40" height="10" as="geometry" />
        </mxCell>
        <mxCell id="lo6jfhoDCfdi372orzyL-15" value="" style="line;strokeWidth=2;html=1;" vertex="1" parent="1">
          <mxGeometry x="650" y="155" width="40" height="10" as="geometry" />
        </mxCell>
        <mxCell id="lo6jfhoDCfdi372orzyL-16" value="定義をLiquidityにし" style="text;html=1;strokeColor=none;fillColor=none;align=center;verticalAlign=middle;whiteSpace=wrap;rounded=0;" vertex="1" parent="1">
          <mxGeometry x="710" y="35" width="95" height="20" as="geometry" />
        </mxCell>
        <mxCell id="lo6jfhoDCfdi372orzyL-17" value="Tag9094をLiquidityにし" style="text;html=1;strokeColor=none;fillColor=none;align=center;verticalAlign=middle;whiteSpace=wrap;rounded=0;" vertex="1" parent="1">
          <mxGeometry x="700" y="150" width="95" height="20" as="geometry" />
        </mxCell>
      </root>
    </mxGraphModel>
  </diagram>
</mxfile>
